<?xml version="1.0" encoding="UTF-8"?>
<svg version="1.1" viewBox="0 0 900 900" width="1280" height="1280" xmlns="http://www.w3.org/2000/svg">
<path transform="translate(619,314)" d="m0 0h14l12 4 17 9 15 9 26 15 28 16 24 14 21 12 26 15 14 9 9 9 5 10 2 8v9l-2 10-5 10-8 9-13 8-21 12-24 14-28 16-19 11-26 15-24 14-20 11-7 2h-18l-11-4-9-7-7-9-4-11-1-8v-46h-478l-12-2-11-6-8-8-6-12-2-9v-26l3-12 4-8 7-8 12-7 8-2 482-1 1-48 2-10 5-10 9-9 14-7zm7 10-12 3-10 7-6 9-2 7v60l-493 1-9 3-8 7-4 6-3 9v28l4 11 7 8 10 5 5 1 490 1 1 60 4 11 8 8 9 5 4 1h10l13-5 26-15 24-14 26-15 24-14 28-16 24-14 13-8 7-7 4-9v-16l-4-9-5-6-16-10-28-16-52-30-24-14-26-15-21-12-8-4z" fill="#151515"/>
</svg>
