<?xml version="1.0" encoding="UTF-8"?>
<svg version="1.1" viewBox="0 0 2048 2048" width="1280" height="1280" xmlns="http://www.w3.org/2000/svg">
<path transform="translate(1185,162)" d="m0 0h19l19 2 19 5 17 6 22 12 12 9 13 11 8 7 691 691 9 11 12 15 6 11 8 16 5 16 1 5h2v59l-2 3-3 18-7 24-10 21-9 14-14 17-9 10-697 697-7 8h-2v2l-12 9-18 10-11 5-25 7-26 3h-10l-24-3-16-5-20-8-21-12-11-9-15-13-145-145-9-11-10-13-12-22-7-19-5-21-2-18v-16l3-26 7-24 7-17 12-21 11-13 9-11 181-181-949-1-37-3-23-6-16-6-21-11-12-9-15-12-7-8-11-12-11-18-8-16-7-22-1-2-1-6v-242l2-6 5-19 7-19 13-23 11-14 9-10 5-5 10-9 15-11 24-13 25-8 17-3 9-1 47-1h927l-6-7-190-190-2-1v-2h-2l-7-8-7-10-11-20-7-21-3-13-2-19v-15l4-27 9-26 12-22 10-14 12-14 8-8 5-6 7-6 5-6 7-6 5-6 7-6 5-6 7-6 5-6 7-6 5-6 7-6 5-6 7-6 5-6 7-6 5-6 7-6 5-6 7-6 5-6 8-7 9-9 14-11 14-9 17-9 15-5 14-4 13-2zm10 136-6 3-10 9-143 143-2 5 1 8 4 7 9 10 299 299 11 15 5 12 2 9v23l-4 20-4 9-6 9-9 8-14 7-15 4-9 1-1138 1-11 2-11 8-4 6-2 6-1 16v186l2 6 6 5 10 3 8 1 1129 1 14 2 16 8 9 7 8 9 8 13 5 12 2 7v23l-6 16-8 12-8 9v2h-2l-7 8-276 276-7 6v2l-4 2-7 11-2 10 1 13 6 10 9 9 5 6 8 7 27 27 5 6 7 6 5 6 7 6 5 6 7 6 5 6 7 6 5 6 7 6 5 6 8 7 25 25 8 5 7 1 8-4 10-9 8-8 6-5 7-8 39-39 2-1v-2h2v-2h2v-2h2v-2h2v-2h2v-2h2v-2h2v-2h2v-2h2v-2h2v-2h2v-2h2v-2h2v-2h2v-2h2v-2h2v-2h2v-2h2v-2h2v-2h2l7-8 588-588 8-12 3-5v-9l-3-7-5-8h-2l-2-4-690-690-9-6-5-2z"/>
</svg>
