<?xml version="1.0" encoding="UTF-8"?>
<svg version="1.1" viewBox="0 0 800 800" width="1280" height="1280" xmlns="http://www.w3.org/2000/svg">
<path transform="translate(726,66)" d="m0 0h14l13 3 13 7 10 9 7 11 4 9 2 10v569l-4 16-7 12-10 10-10 6-11 4-16 2-13-2-12-5-11-8-8-9-8-16-2-11v-568l3-12 6-12 9-10 7-6 14-7z" fill="#020202"/>
<path transform="translate(505,210)" d="m0 0h12l10 2 12 5 9 7 8 8 7 12 3 9 1 6v424l-3 14-7 13-10 11-13 8-9 3-5 1h-20l-12-4-12-7-10-10-6-10-4-11-1-7-1-30v-312l1-84 3-12 7-13 5-6 11-9 13-6z" fill="#020202"/>
<path transform="translate(278,383)" d="m0 0h22l12 4 10 6 10 9 7 11 4 10 2 16v236l-1 14-4 12-7 12-8 8-11 7-11 4-5 1h-20l-13-4-11-7-10-10-8-14-3-11v-259l4-12 7-12 6-7 13-9 10-4z" fill="#020202"/>
<path transform="translate(61,480)" d="m0 0h9l16 3 13 7 10 9 7 10 5 12 1 4 1 23-1 140-4 13-7 11-6 7-10 7-11 5-8 2h-20l-13-4-11-7-7-6-7-10-4-8-3-10-1-9v-125l1-28 4-13 6-10 9-10 11-7 9-4z" fill="#020202"/>
<path transform="translate(678,109)" d="m0 0h1l1 23v562l-2-4-1-7v-568z" fill="#363636"/>
<path transform="translate(564,250)" d="m0 0 2 3 1 6v424l-2 10h-1z" fill="#353535"/>
<path transform="translate(234,424)" d="m0 0h1l1 57v209l1 8-2-3-2-8v-259z" fill="#363636"/>
<path transform="translate(119,518)" d="m0 0 2 3 1 4 1 23-1 140-2 4z" fill="#3F3F3F"/>
<path transform="translate(34,490)" d="m0 0 2 1-13 13-2-1 9-10z" fill="#707070"/>
</svg>
