<?xml version="1.0" encoding="UTF-8"?>
<svg version="1.1" viewBox="0 0 900 900" width="1280" height="1280" xmlns="http://www.w3.org/2000/svg">
<path transform="translate(425,183)" d="m0 0h37l38 3 28 4 32 7 29 9 21 8 28 13 18 10 24 15 17 13 16 13 12 11 3 2v2l4 2 14 14 7 8 10 11 11 14 10 13 13 18 10 16 3 4v2l-13 7-23 13-14 8-6 2h-14l-7-3-6-4-14-17-22-24-18-18-8-7-14-12-19-14-20-13-18-10-16-8-24-10-21-7-28-7-26-4-25-2h-34l-29 3-26 5-24 7-22 8-29 14-22 13-17 12-14 11-13 11-12 11-23 23-7 8-18 22-10 13-6 8-15-8-23-13-11-7-6-8-3-9v-9l4-10 10-14 12-16 11-13 7-8 9-10 25-25 11-9 12-10 19-14 19-12 23-13 26-12 24-9 19-6 34-8 24-4 29-3z" fill="#020202"/>
<path transform="translate(420,378)" d="m0 0h46l21 2 26 5 22 6 28 11 21 11 16 10 11 8 13 10 10 9 2 1v2l4 2 16 16 7 8 10 12 13 17 8 11 2 4-10 6-26 15-12 7-6 2h-13l-7-3-8-7-11-12-7-8-16-16-13-10-10-7-15-9-19-9-21-7-23-5-17-2h-38l-21 3-24 6-19 7-16 8-15 9-16 12-12 11-4 2-2 4-14 14-10 13-10 14-1 2-4-1-10-6-14-8-18-11-7-8-3-6-1-11 3-10 8-11 12-14 12-13 14-14 22-18 16-11 20-12 21-10 24-9 23-6 22-4z" fill="#020202"/>
<path transform="translate(437,564)" d="m0 0h24l16 4 17 9 12 10 11 15 7 15 3 14v20l-4 16-8 16-9 11-7 7-13 8-14 6-16 3h-12l-16-3-13-5-11-7-12-11-8-11-6-12-4-13-1-5v-20l4-16 8-16 8-10 9-9 11-7 10-5z" fill="#020202"/>
</svg>
